<svg xmlns="http://www.w3.org/2000/svg" viewBox="0 0 24 24" fill="currentColor">
  <path d="M12 2C11.5 2 11 2.19 10.59 2.59L2.59 10.59C1.8 11.37 1.8 12.63 2.59 13.41L10.59 21.41C11.37 22.2 12.63 22.2 13.41 21.41L21.41 13.41C22.2 12.63 22.2 11.37 21.41 10.59L13.41 2.59C13 2.19 12.5 2 12 2M12 4L20 12L12 20L4 12L12 4M7 10C6.45 10 6 10.45 6 11C6 11.55 6.45 12 7 12C7.55 12 8 11.55 8 11C8 10.45 7.55 10 7 10M12 7C11.45 7 11 7.45 11 8C11 8.55 11.45 9 12 9C12.55 9 13 8.55 13 8C13 7.45 12.55 7 12 7M17 10C16.45 10 16 10.45 16 11C16 11.55 16.45 12 17 12C17.55 12 18 11.55 18 11C18 10.45 17.55 10 17 10M12 15C11.45 15 11 15.45 11 16C11 16.55 11.45 17 12 17C12.55 17 13 16.55 13 16C13 15.45 12.55 15 12 15Z"/>
</svg>
